<?xml version="1.0" encoding="UTF-8"?>
<svg version="1.1" xmlns="http://www.w3.org/2000/svg" width="32" height="32">
<path d="M0 0 C3.96 0 7.92 0 12 0 C12.33 0.99 12.66 1.98 13 3 C13.9590625 3.2165625 13.9590625 3.2165625 14.9375 3.4375 C17 4 17 4 18.25 5.8125 C19 8 19 8 19 12 C19.66 12 20.32 12 21 12 C21.39114302 18.38866933 20.24553149 22.99511003 16.3828125 28.1640625 C13.10781891 30.68741822 10.10897872 30.72846402 6.125 30.6875 C5.40626709 30.68024902 4.68753418 30.67299805 3.94702148 30.66552734 C-0.15792073 30.47455604 -3.03697814 30.13954729 -5.9375 27.125 C-8.6684598 22.71822395 -9.62168171 18.13266487 -9 13 C-7.66976045 9.44136646 -5.98776495 6.23269733 -4 3 C-3.01 3 -2.02 3 -1 3 C-0.67 2.01 -0.34 1.02 0 0 Z M1 2 C1.14107747 3.45880109 1.28802415 4.91703551 1.4375 6.375 C1.51871094 7.18710938 1.59992187 7.99921875 1.68359375 8.8359375 C1.89090114 11.04272805 1.89090114 11.04272805 3 13 C4.98 13 6.96 13 9 13 C9 13.99 9 14.98 9 16 C9.66 16 10.32 16 11 16 C11 15.01 11 14.02 11 13 C12.32 13 13.64 13 15 13 C15 12.34 15 11.68 15 11 C15.66 11 16.32 11 17 11 C17 10.34 17 9.68 17 9 C16.34 9 15.68 9 15 9 C15 7.68 15 6.36 15 5 C14.01 5.33 13.02 5.66 12 6 C12.33 7.65 12.66 9.3 13 11 C11.68 11 10.36 11 9 11 C9.58803797 7.97580475 10.22678118 4.98241547 11 2 C9.68 2 8.36 2 7 2 C7 2.66 7 3.32 7 4 C6.34 4 5.68 4 5 4 C5 3.34 5 2.68 5 2 C3.68 2 2.36 2 1 2 Z M-3 5 C-3 6.32 -3 7.64 -3 9 C-3.66 9 -4.32 9 -5 9 C-5 9.66 -5 10.32 -5 11 C-4.34 11 -3.68 11 -3 11 C-3 11.66 -3 12.32 -3 13 C-1.68 13 -0.36 13 1 13 C1 14.32 1 15.64 1 17 C0.01 17.495 0.01 17.495 -1 18 C-0.01 18 0.98 18 2 18 C2 18.66 2 19.32 2 20 C2.66 20 3.32 20 4 20 C4 21.32 4 22.64 4 24 C1.69 23.67 -0.62 23.34 -3 23 C-3.33 23.66 -3.66 24.32 -4 25 C-2.81476003 26.60414215 -2.81476003 26.60414215 -1 28 C1.62570704 28.25069913 1.62570704 28.25069913 4 28 C4.33 27.01 4.66 26.02 5 25 C5.66 25 6.32 25 7 25 C7.33 25.99 7.66 26.98 8 28 C8.66 28 9.32 28 10 28 C10 26.68 10 25.36 10 24 C9.34 24 8.68 24 8 24 C8 22.68 8 21.36 8 20 C9.65 20 11.3 20 13 20 C13 19.01 13 18.02 13 17 C11.35 17 9.7 17 8 17 C8 16.01 8 15.02 8 14 C6.02 14 4.04 14 2 14 C2 13.01 2 12.02 2 11 C1.01 10.67 0.02 10.34 -1 10 C-0.67 8.35 -0.34 6.7 0 5 C-0.99 5 -1.98 5 -3 5 Z M-6 13 C-7.10844919 16.32534757 -6.84454356 18.62182575 -6 22 C-3.69 21.34 -1.38 20.68 1 20 C0.01 19.67 -0.98 19.34 -2 19 C-2 18.34 -2 17.68 -2 17 C-2.66 17 -3.32 17 -4 17 C-4 15.68 -4 14.36 -4 13 C-4.66 13 -5.32 13 -6 13 Z M16 13 C16 14.32 16 15.64 16 17 C15.34 17 14.68 17 14 17 C14 17.99 14 18.98 14 20 C15.32 20 16.64 20 18 20 C17.67 18.68 17.34 17.36 17 16 C17.66 16 18.32 16 19 16 C18.67 15.01 18.34 14.02 18 13 C17.34 13 16.68 13 16 13 Z M13 21 C13 21.99 13 22.98 13 24 C12.34 24 11.68 24 11 24 C11 25.32 11 26.64 11 28 C13.08882742 28.2094457 13.08882742 28.2094457 14.625 26.6875 C16.31583648 24.97517573 16.31583648 24.97517573 16 22 C16.66 21.67 17.32 21.34 18 21 C16.35 21 14.7 21 13 21 Z " fill="#538709" transform="translate(10,1)"/>
<path d="M0 0 C0.66 0 1.32 0 2 0 C2 0.66 2 1.32 2 2 C1.34 2 0.68 2 0 2 C0 1.34 0 0.68 0 0 Z " fill="#55840A" transform="translate(15,21)"/>
<path d="M0 0 C0.66 0 1.32 0 2 0 C2 0.66 2 1.32 2 2 C1.34 2 0.68 2 0 2 C0 1.34 0 0.68 0 0 Z " fill="#55840A" transform="translate(15,16)"/>
<path d="M0 0 C0.66 0 1.32 0 2 0 C2 0.66 2 1.32 2 2 C1.34 2 0.68 2 0 2 C0 1.34 0 0.68 0 0 Z " fill="#55840A" transform="translate(15,11)"/>
<path d="M0 0 C0.66 0 1.32 0 2 0 C2 0.66 2 1.32 2 2 C1.34 2 0.68 2 0 2 C0 1.34 0 0.68 0 0 Z " fill="#55840A" transform="translate(15,6)"/>
<path d="M0 0 C2 1 2 1 2 1 Z " fill="#55850A" transform="translate(15,24)"/>
<path d="M0 0 C2 1 2 1 2 1 Z " fill="#55850A" transform="translate(15,19)"/>
</svg>
